<svg width="25" height="30" viewBox="0 0 25 30" fill="none" xmlns="http://www.w3.org/2000/svg">
<path d="M18.6571 0.0618038C18.6181 0.0966076 18.4491 0.138372 18.2671 0.159254C17.9031 0.194058 17.3637 0.326312 17.1622 0.416802C17.0387 0.472488 16.9152 0.507292 16.4667 0.604743C16.3627 0.625625 16.2847 0.667389 16.2847 0.702193C16.2847 0.736997 16.2002 0.76484 16.0897 0.76484C15.9857 0.76484 15.8948 0.792683 15.8948 0.834447C15.8948 0.869251 15.8363 0.904055 15.7648 0.904055C15.6933 0.904055 15.6348 0.931898 15.6348 0.973662C15.6348 1.00847 15.5503 1.04327 15.4398 1.04327C15.3358 1.04327 15.2448 1.07111 15.2448 1.11288C15.2448 1.14768 15.1733 1.18248 15.0823 1.18248C14.9913 1.18248 14.9198 1.21033 14.9198 1.25209C14.9198 1.2869 14.8613 1.3217 14.7898 1.3217C14.7183 1.3217 14.6598 1.34954 14.6598 1.37739C14.6598 1.40523 14.4128 1.5514 14.1074 1.70454C13.8019 1.85072 13.5549 1.99689 13.5549 2.0317C13.5549 2.05954 13.4964 2.08738 13.4249 2.08738C13.3534 2.08738 13.2949 2.11523 13.2949 2.15699C13.2949 2.19179 13.2364 2.2266 13.1649 2.2266C13.0934 2.2266 13.0349 2.25444 13.0349 2.29621C13.0349 2.33101 12.9894 2.36581 12.9374 2.36581C12.8854 2.36581 12.8399 2.39366 12.8399 2.4215C12.8399 2.4563 12.7229 2.53983 12.58 2.6164C12.437 2.68601 12.32 2.76954 12.32 2.79738C12.32 2.83218 12.2745 2.85307 12.2225 2.85307C12.1705 2.85307 12.125 2.88091 12.125 2.92267C12.125 2.95748 12.0795 2.99228 12.0275 2.99228C11.9755 2.99228 11.93 3.02012 11.93 3.06189C11.93 3.09669 11.8845 3.1315 11.8325 3.1315C11.7805 3.1315 11.735 3.15934 11.735 3.2011C11.735 3.23591 11.6895 3.27071 11.631 3.27071C11.5725 3.27071 11.475 3.3264 11.4165 3.396C11.358 3.46561 11.1955 3.61179 11.0526 3.72316C10.9096 3.84149 10.7146 4.01551 10.6171 4.11992C10.5261 4.23129 10.4156 4.31482 10.3831 4.31482C10.3441 4.31482 10.0646 4.57933 9.75913 4.90649C9.45365 5.23364 9.18717 5.49815 9.16767 5.49815C9.14167 5.49815 9.01818 5.60952 8.88818 5.74178C8.75819 5.87403 8.6282 5.9854 8.6022 5.9854C8.5697 5.9854 8.5502 6.03413 8.5502 6.08982C8.5502 6.1455 8.52421 6.19423 8.49821 6.19423C8.46571 6.19423 8.40071 6.27079 8.35522 6.36825C8.30972 6.4657 8.23172 6.54226 8.17973 6.54226C8.13423 6.54226 8.09523 6.56315 8.09523 6.59795C8.09523 6.62579 7.89374 6.87638 7.64026 7.15481C7.39327 7.43324 7.18529 7.69079 7.18529 7.72559C7.18529 7.76736 7.06829 7.92745 6.9253 8.08755C6.78231 8.25461 6.66532 8.40775 6.66532 8.43559C6.66532 8.46343 6.56783 8.58873 6.45733 8.72098C6.34034 8.84627 6.19735 9.03421 6.14535 9.13166C6.00886 9.38225 5.81387 9.66068 5.63838 9.85558C5.56039 9.94607 5.49539 10.0574 5.49539 10.1062C5.49539 10.1619 5.43689 10.2454 5.3654 10.3011C5.2939 10.3568 5.23541 10.4403 5.23541 10.489C5.23541 10.5377 5.20941 10.5795 5.17041 10.5795C5.13791 10.5795 5.10541 10.6421 5.10541 10.7187C5.10541 10.7953 5.07942 10.8579 5.04692 10.8579C5.01442 10.8579 4.95592 10.9484 4.91043 11.0668C4.86493 11.1781 4.81293 11.2756 4.78693 11.2756C4.76094 11.2756 4.68944 11.3869 4.62444 11.5192C4.55295 11.6515 4.47495 11.7628 4.44246 11.7628C4.41646 11.7628 4.39046 11.8185 4.39046 11.8881C4.39046 11.9577 4.33196 12.0552 4.26047 12.1109C4.18897 12.1666 4.13047 12.264 4.13047 12.3336C4.13047 12.4032 4.10448 12.4589 4.06548 12.4589C4.03298 12.4589 4.00048 12.4937 4.00048 12.5285C4.00048 12.612 3.6625 13.1828 3.59751 13.2107C3.56501 13.2246 3.54551 13.2942 3.54551 13.3708C3.54551 13.4404 3.51951 13.503 3.48051 13.503C3.44802 13.503 3.41552 13.5517 3.41552 13.6074C3.41552 13.6631 3.38952 13.7118 3.35052 13.7118C3.31802 13.7118 3.28553 13.7745 3.28553 13.8511C3.28553 13.9276 3.25953 13.9903 3.22053 13.9903C3.18803 13.9903 3.15553 14.032 3.15553 14.0808C3.15553 14.1295 3.09704 14.2409 3.02554 14.3244C2.95405 14.4079 2.89555 14.5054 2.89555 14.5402C2.89555 14.6376 2.56407 15.271 2.49257 15.2989C2.46658 15.3128 2.44058 15.3824 2.44058 15.459C2.44058 15.5286 2.41458 15.5912 2.37558 15.5912C2.34308 15.5912 2.31059 15.6539 2.31059 15.7305C2.31059 15.807 2.28459 15.8697 2.24559 15.8697C2.21309 15.8697 2.18059 15.9323 2.18059 16.0089C2.18059 16.0855 2.1546 16.1481 2.1156 16.1481C2.0831 16.1481 2.0506 16.2247 2.0506 16.3221C2.0506 16.4196 2.0246 16.4961 1.98561 16.4961C1.95311 16.4961 1.92061 16.5588 1.92061 16.6354C1.92061 16.7119 1.89461 16.7746 1.85561 16.7746C1.82312 16.7746 1.79062 16.8163 1.79062 16.872C1.79062 16.9207 1.71912 17.1087 1.62813 17.2897C1.53713 17.4706 1.46564 17.6655 1.46564 17.7212C1.46564 17.77 1.43964 17.8187 1.40064 17.8187C1.36814 17.8187 1.33565 17.8953 1.33565 17.9927C1.33565 18.0902 1.30965 18.1667 1.27065 18.1667C1.23815 18.1667 1.20565 18.2572 1.20565 18.3755C1.20565 18.4869 1.17965 18.5844 1.14066 18.5844C1.10816 18.5844 1.07566 18.6749 1.07566 18.7932C1.07566 18.9046 1.04966 19.002 1.01067 19.002C0.978167 19.002 0.945669 19.0925 0.945669 19.2039C0.945669 19.3222 0.919671 19.4336 0.880673 19.4545C0.848175 19.4753 0.815677 19.5658 0.815677 19.6424C0.815677 19.7259 0.789679 19.886 0.757181 20.0044C0.562193 20.6796 0.360705 21.7724 0.360705 22.1135C0.360705 22.2805 0.334707 22.4128 0.295709 22.4128C0.256711 22.4128 0.230713 22.8095 0.230713 23.4569C0.230713 24.1042 0.256711 24.501 0.295709 24.501C0.334707 24.501 0.360705 24.6333 0.360705 24.7934C0.360705 25.0718 0.490697 25.6217 0.627189 25.9071C0.659687 25.9767 0.685685 26.095 0.685685 26.1716C0.685685 26.2482 0.718183 26.3108 0.750681 26.3108C0.789679 26.3108 0.815677 26.3734 0.815677 26.45C0.815677 26.5266 0.848175 26.5892 0.880673 26.5892C0.919671 26.5892 0.945669 26.6519 0.945669 26.7284C0.945669 26.805 0.978167 26.8677 1.01067 26.8677C1.04966 26.8677 1.07566 26.9303 1.07566 27.0069C1.07566 27.0834 1.10816 27.1461 1.14066 27.1461C1.17965 27.1461 1.20565 27.1948 1.20565 27.2505C1.20565 27.3062 1.23815 27.3549 1.27065 27.3549C1.30965 27.3549 1.33565 27.3897 1.33565 27.4315C1.33565 27.5359 2.18059 28.4199 2.43408 28.58C2.54457 28.6496 2.63557 28.7331 2.63557 28.761C2.63557 28.7888 2.68106 28.8167 2.73306 28.8167C2.78506 28.8167 2.83055 28.8445 2.83055 28.8863C2.83055 28.9211 2.87605 28.9559 2.92805 28.9559C2.98004 28.9559 3.02554 28.9837 3.02554 29.0255C3.02554 29.0603 3.08404 29.0951 3.15553 29.0951C3.22703 29.0951 3.28553 29.1229 3.28553 29.1647C3.28553 29.1995 3.34402 29.2343 3.41552 29.2343C3.48701 29.2343 3.54551 29.2622 3.54551 29.3039C3.54551 29.3387 3.60401 29.3735 3.669 29.3735C3.7405 29.3735 3.81199 29.4014 3.83799 29.4362C3.85749 29.471 3.96148 29.5197 4.06548 29.5476C4.17597 29.5754 4.26047 29.6241 4.26047 29.6589C4.26047 29.6937 4.35146 29.7216 4.45545 29.7216C4.56595 29.7216 4.65044 29.7494 4.65044 29.7912C4.65044 29.826 4.76744 29.8608 4.91043 29.8608C5.05342 29.8608 5.17041 29.8886 5.17041 29.9304C5.17041 29.9722 5.70988 30 6.66532 30C7.62076 30 8.16023 29.9722 8.16023 29.9304C8.16023 29.8886 8.26422 29.8608 8.38771 29.8608C8.51121 29.8608 8.6672 29.8329 8.73219 29.7981C8.79069 29.7633 9.10917 29.652 9.42765 29.5406C9.75263 29.4362 10.0451 29.3248 10.0776 29.3039C10.1166 29.2761 10.2791 29.2134 10.4481 29.1577C10.6236 29.109 10.7601 29.0394 10.7601 29.0116C10.7601 28.9837 10.8186 28.9559 10.8901 28.9559C10.9616 28.9559 11.0201 28.9211 11.0201 28.8863C11.0201 28.8445 11.0915 28.8167 11.1825 28.8167C11.2735 28.8167 11.345 28.7819 11.345 28.7471C11.345 28.7053 11.4035 28.6775 11.4685 28.6775C11.54 28.6775 11.605 28.6496 11.618 28.6218C11.6375 28.5661 12.1055 28.2598 12.4305 28.0928C12.515 28.051 12.58 27.9953 12.58 27.9605C12.58 27.9327 12.632 27.9118 12.697 27.9118C12.7619 27.9118 12.8529 27.8491 12.9049 27.7726C12.9569 27.696 13.0349 27.6333 13.0869 27.6333C13.1324 27.6333 13.2104 27.5916 13.2559 27.5498C13.3014 27.5011 13.4184 27.3967 13.5224 27.3201C13.6199 27.2435 13.7694 27.1113 13.8539 27.0208C13.9384 26.9373 14.0359 26.8677 14.0749 26.8677C14.1074 26.8677 14.1399 26.8329 14.1399 26.7981C14.1399 26.7563 14.1724 26.7284 14.2049 26.7284C14.2439 26.7284 14.3608 26.638 14.4648 26.5196C14.5688 26.4083 14.6858 26.3108 14.7248 26.3108C14.7573 26.3108 14.7898 26.269 14.7898 26.2134C14.7898 26.1577 14.8483 26.0881 14.9198 26.0672C14.9978 26.0393 15.1538 25.914 15.2773 25.7818C15.4008 25.6495 15.5178 25.5451 15.5373 25.5451C15.5568 25.5451 15.7063 25.4129 15.8623 25.2528C16.4342 24.6681 16.6097 24.501 16.6422 24.501C16.6942 24.501 17.8446 23.2341 17.8446 23.1715C17.8446 23.1367 17.8771 23.1089 17.9096 23.1089C17.9486 23.1089 17.9746 23.0741 17.9746 23.0392C17.9746 22.9975 18.0396 22.8931 18.1241 22.8026C18.5336 22.3432 18.9496 21.8559 18.9496 21.8211C18.9496 21.7724 19.0991 21.5845 19.7945 20.7631C19.866 20.6796 19.9245 20.5891 19.9245 20.5682C19.9245 20.5473 20.0285 20.422 20.152 20.2828C20.2755 20.1505 20.3795 20.0183 20.3795 19.9835C20.3795 19.9278 20.4835 19.7886 20.841 19.3709C20.9449 19.2456 21.0294 19.1273 21.0294 19.0995C21.0294 19.0786 21.1074 18.9742 21.2114 18.8767C21.3089 18.7723 21.5039 18.5287 21.6469 18.3407C21.7899 18.1458 21.9849 17.9092 22.0824 17.8048C22.1864 17.7073 22.2644 17.6029 22.2644 17.582C22.2644 17.5194 22.4594 17.2688 22.8038 16.9068C22.9728 16.7189 23.1093 16.5379 23.1093 16.4961C23.1093 16.4544 23.1743 16.35 23.2588 16.2595C23.3368 16.169 23.4928 15.981 23.5968 15.8349C23.7073 15.6957 23.8568 15.5077 23.9413 15.4172C24.0193 15.3267 24.0843 15.2154 24.0843 15.1736C24.0843 15.1388 24.1168 15.104 24.1492 15.104C24.1882 15.104 24.2142 15.0553 24.2142 14.9996C24.2142 14.9439 24.2467 14.8952 24.2792 14.8952C24.3182 14.8952 24.3442 14.8464 24.3442 14.7908C24.3442 14.7351 24.3767 14.6863 24.4157 14.6863C24.4612 14.6863 24.4742 14.5611 24.4482 14.3174C24.4287 14.1225 24.3832 13.5169 24.3507 12.981C24.3182 12.445 24.2727 11.9368 24.2467 11.8464C24.1947 11.6863 24.0843 11.6306 24.0843 11.7698C24.0843 11.8116 24.0063 11.9299 23.9023 12.0273C23.8048 12.1317 23.6423 12.3406 23.5318 12.4937C23.4278 12.6468 23.2328 12.8905 23.0963 13.0297C22.9598 13.1689 22.8493 13.3151 22.8493 13.3499C22.8493 13.3847 22.6608 13.6283 22.4269 13.8859C22.1929 14.1504 22.0044 14.387 22.0044 14.4218C22.0044 14.4636 21.7574 14.756 21.4519 15.0831C21.1464 15.4103 20.8994 15.6887 20.8994 15.7026C20.8994 15.7513 20.529 16.1829 20.074 16.6771C19.8465 16.9207 19.6645 17.1365 19.6645 17.1574C19.6645 17.227 19.0861 17.8187 19.0146 17.8187C18.9821 17.8187 18.9496 17.8535 18.9496 17.8883C18.9496 17.9649 18.2671 18.7236 18.2021 18.7236C18.1826 18.7236 17.9161 18.9881 17.6171 19.3152C17.3117 19.6424 17.0192 19.9069 16.9672 19.9069C16.9152 19.9069 16.8697 19.9417 16.8697 19.9765C16.8697 20.0183 16.7332 20.1853 16.5707 20.3454C16.4017 20.5055 16.2002 20.7074 16.1157 20.7979C16.0312 20.8814 15.9338 20.951 15.8883 20.951C15.8493 20.951 15.7388 21.0415 15.6478 21.1459C15.5503 21.2503 15.3553 21.4313 15.2123 21.5427C15.0693 21.661 14.9068 21.8002 14.8548 21.8559C14.8028 21.9116 14.6793 22.0021 14.5818 22.0578C14.4778 22.1135 14.3998 22.1831 14.3998 22.2179C14.3998 22.2457 14.3673 22.2736 14.3349 22.2736C14.2959 22.2736 14.2309 22.3084 14.1854 22.3432C13.8799 22.6146 13.7824 22.6912 13.6784 22.726C13.6069 22.7539 13.5549 22.7956 13.5549 22.8235C13.5549 22.8513 13.4509 22.914 13.3274 22.9696C13.2039 23.0253 13.0999 23.088 13.0999 23.1228C13.0999 23.1506 13.0414 23.1785 12.9699 23.1785C12.8984 23.1785 12.8399 23.2063 12.8399 23.2481C12.8399 23.2829 12.7814 23.3177 12.7099 23.3177C12.6385 23.3177 12.58 23.3455 12.58 23.3873C12.58 23.4221 12.5215 23.4569 12.45 23.4569C12.3785 23.4569 12.32 23.4847 12.32 23.5195C12.32 23.5543 12.19 23.6379 12.0275 23.7144C11.865 23.784 11.735 23.8606 11.735 23.8885C11.735 23.9233 11.6765 23.9441 11.605 23.9441C11.5335 23.9441 11.475 23.972 11.475 24.0138C11.475 24.0486 11.4035 24.0834 11.319 24.0834C11.228 24.0834 11.137 24.1112 11.1175 24.153C11.098 24.1878 11.0071 24.2226 10.9161 24.2226C10.8316 24.2226 10.7601 24.2504 10.7601 24.2922C10.7601 24.327 10.6756 24.3618 10.5651 24.3618C10.4611 24.3618 10.3701 24.3896 10.3701 24.4314C10.3701 24.4662 10.2856 24.501 10.1751 24.501C10.0711 24.501 9.98012 24.5288 9.98012 24.5637C9.98012 24.5985 9.90212 24.6402 9.80463 24.6611C9.70063 24.682 9.46015 24.7516 9.26516 24.8212C9.07017 24.8838 8.79069 24.9535 8.6477 24.9674C8.50471 24.9883 8.36172 25.03 8.32922 25.0648C8.29022 25.0996 7.93274 25.1275 7.52977 25.1275C6.82781 25.1275 6.78231 25.1205 6.63282 24.9535C6.54183 24.863 6.47033 24.7516 6.47033 24.7098C6.47033 24.675 6.44433 24.6402 6.40534 24.6402C6.37284 24.6402 6.34034 24.5845 6.34034 24.5149C6.34034 24.4453 6.30784 24.3548 6.26234 24.3061C6.16485 24.2017 6.17135 22.1343 6.26884 21.9325C6.30784 21.8559 6.34034 21.6401 6.34034 21.4452C6.34034 21.2503 6.37284 21.0902 6.40534 21.0902C6.44433 21.0902 6.47033 20.951 6.47033 20.777C6.47033 20.603 6.49633 20.4638 6.52883 20.4638C6.56133 20.4638 6.60032 20.3594 6.61982 20.2341C6.67832 19.8721 6.73681 19.6006 6.79531 19.4545C7.0358 18.8141 7.08129 18.7236 7.19829 18.7236C7.26328 18.7236 7.31528 18.6888 7.31528 18.654C7.31528 18.6122 7.36078 18.5844 7.41927 18.5844C7.47777 18.5844 7.65976 18.5078 7.82875 18.4173C7.99124 18.3268 8.24472 18.1946 8.38771 18.1319C8.53071 18.0693 8.73219 17.9718 8.83619 17.9161C8.94018 17.8604 9.06367 17.8187 9.11567 17.8187C9.16117 17.8187 9.20016 17.7839 9.20016 17.7491C9.20016 17.7073 9.25866 17.6795 9.33016 17.6795C9.40815 17.6795 9.53164 17.6168 9.60964 17.5403C9.68763 17.4567 9.90862 17.3105 10.1101 17.2061C10.3051 17.1087 10.4806 16.9973 10.4871 16.9695C10.5001 16.9416 10.5651 16.9138 10.6366 16.9138C10.7016 16.9138 10.7601 16.879 10.7601 16.8442C10.7601 16.8024 10.8186 16.7746 10.8901 16.7746C10.9616 16.7746 11.0201 16.7398 11.0201 16.705C11.0201 16.6632 11.0656 16.6354 11.1175 16.6354C11.1695 16.6354 11.215 16.6006 11.215 16.5657C11.215 16.524 11.2605 16.4961 11.3125 16.4961C11.371 16.4961 11.449 16.4613 11.4945 16.4265C11.6245 16.3082 12.2095 15.9114 12.4045 15.807C12.502 15.7513 12.58 15.6817 12.58 15.6469C12.58 15.6191 12.632 15.5912 12.697 15.5912C12.7619 15.5912 12.8529 15.5286 12.9049 15.452C12.9569 15.3755 13.0219 15.3128 13.0544 15.3128C13.0869 15.3128 13.2039 15.2362 13.3209 15.1388C13.4379 15.0413 13.5614 14.9648 13.5939 14.9648C13.6264 14.9648 13.6979 14.9021 13.7499 14.8256C13.8019 14.749 13.8799 14.6863 13.9254 14.6863C13.9709 14.6863 14.0099 14.6515 14.0099 14.6167C14.0099 14.575 14.0554 14.5471 14.1074 14.5471C14.1594 14.5471 14.2049 14.5123 14.2049 14.4775C14.2049 14.4358 14.2374 14.4079 14.2699 14.4079C14.3089 14.4079 14.4128 14.3383 14.4973 14.2478C14.6923 14.0599 14.7638 13.9972 15.0498 13.7814C15.3358 13.5657 15.4528 13.4613 15.7713 13.155C15.9078 13.0227 16.1222 12.8139 16.2522 12.7025C16.3887 12.5842 16.6292 12.3545 16.7982 12.1805C17.1752 11.7976 17.5717 11.4287 17.7991 11.2408C17.8966 11.1642 17.9746 11.0807 17.9746 11.0459C17.9746 11.018 18.0981 10.8579 18.2541 10.6909C18.6571 10.2454 19.385 9.38921 19.515 9.19431C19.58 9.11078 19.7295 8.9298 19.8465 8.79755C19.957 8.67225 20.0545 8.53304 20.0545 8.49128C20.0545 8.45647 20.087 8.42167 20.1195 8.42167C20.1585 8.42167 20.1845 8.37294 20.1845 8.31726C20.1845 8.26157 20.217 8.21284 20.2495 8.21284C20.2885 8.21284 20.3145 8.17804 20.3145 8.13628C20.3145 8.08755 20.3665 8.00402 20.4315 7.94138C20.5745 7.80216 20.8994 7.26618 20.8994 7.16873C20.8994 7.13393 20.9319 7.09912 20.9644 7.09912C21.0034 7.09912 21.0294 7.0504 21.0294 6.99471C21.0294 6.93903 21.0619 6.8903 21.0944 6.8903C21.1334 6.8903 21.1594 6.84158 21.1594 6.78589C21.1594 6.7302 21.1919 6.68148 21.2244 6.68148C21.2634 6.68148 21.2894 6.61883 21.2894 6.54226C21.2894 6.4657 21.3219 6.40305 21.3544 6.40305C21.3934 6.40305 21.4194 6.36128 21.4194 6.3056C21.4194 6.19423 21.7509 5.53992 21.8224 5.51207C21.8484 5.49815 21.8744 5.39374 21.8744 5.28237C21.8744 5.171 21.9069 5.08051 21.9394 5.08051C21.9784 5.08051 22.0044 4.98306 22.0044 4.87168C22.0044 4.75335 22.0369 4.66286 22.0694 4.66286C22.1084 4.66286 22.1344 4.55845 22.1344 4.43316C22.1344 4.30786 22.1604 4.17561 22.1929 4.13384C22.3229 3.99463 22.4464 1.97601 22.3359 1.85768C22.2969 1.81591 22.2644 1.6767 22.2644 1.5514C22.2644 1.42611 22.2384 1.3217 22.1994 1.3217C22.1669 1.3217 22.1344 1.27297 22.1344 1.21729C22.1344 1.06415 21.6274 0.549057 21.3219 0.381998C21.1789 0.30543 21.0554 0.221901 21.0424 0.187097C21.0294 0.159254 20.9319 0.138372 20.8345 0.138372C20.7305 0.138372 20.6265 0.103568 20.607 0.0687646C20.555 -0.0217252 18.7416 -0.0217252 18.6571 0.0618038ZM16.2327 3.66747C16.3627 3.79277 16.3952 4.32178 16.2912 4.6907C16.2587 4.80904 16.1807 5.09443 16.1222 5.32413C16.0637 5.55384 15.9857 5.79746 15.9533 5.86011C15.9208 5.92972 15.8948 6.04805 15.8948 6.12462C15.8948 6.20119 15.8688 6.26383 15.8298 6.26383C15.7973 6.26383 15.7648 6.32648 15.7648 6.40305C15.7648 6.47962 15.7388 6.54226 15.6998 6.54226C15.6673 6.54226 15.6348 6.61883 15.6348 6.70932C15.6348 6.80677 15.6088 6.90422 15.5698 6.92511C15.5373 6.94599 15.5048 7.02952 15.5048 7.09912C15.5048 7.16873 15.4853 7.23834 15.4593 7.25226C15.4268 7.25922 15.2903 7.53069 15.1473 7.84393C15.0043 8.16412 14.8678 8.42167 14.8418 8.42167C14.8093 8.42167 14.7898 8.47039 14.7898 8.52608C14.7898 8.58176 14.7638 8.63049 14.7248 8.63049C14.6923 8.63049 14.6598 8.69314 14.6598 8.76971C14.6598 8.84627 14.6338 8.90892 14.6078 8.90892C14.5753 8.90892 14.5168 9.02029 14.4648 9.15255C14.4128 9.2848 14.3543 9.39617 14.3219 9.39617C14.2959 9.39617 14.2699 9.43794 14.2699 9.4797C14.2699 9.55627 14.1854 9.68156 13.8799 10.0714C13.8474 10.1201 13.8149 10.1897 13.8149 10.2315C13.8149 10.2663 13.7889 10.3011 13.7499 10.3011C13.7174 10.3011 13.6849 10.3498 13.6849 10.4055C13.6849 10.4612 13.6589 10.5099 13.6199 10.5099C13.5874 10.5099 13.5549 10.5447 13.5549 10.5795C13.5549 10.6213 13.4834 10.7326 13.3924 10.8301C13.3014 10.9275 13.2299 11.0389 13.2299 11.0737C13.2299 11.1155 13.0544 11.3313 12.8399 11.561C12.6255 11.7837 12.45 12.0204 12.45 12.0761C12.45 12.1317 12.424 12.1805 12.398 12.1805C12.3395 12.1805 11.605 12.9392 11.605 12.9949C11.605 13.0436 11.2865 13.3638 11.2345 13.3638C11.2085 13.3638 10.9551 13.6005 10.6756 13.8859C10.3961 14.1712 10.1426 14.4079 10.1101 14.4079C10.0711 14.4079 10.0451 14.4288 10.0451 14.4566C10.0451 14.4914 9.93462 14.5889 9.79813 14.6863C9.54464 14.8673 9.44715 14.9509 9.31066 15.0761C9.26516 15.111 9.13517 15.1945 9.02468 15.2502C8.90768 15.2989 8.81019 15.3685 8.81019 15.3963C8.81019 15.4311 8.75169 15.452 8.6802 15.452C8.6087 15.452 8.5502 15.4799 8.5502 15.5216C8.5502 15.5564 8.46571 15.5912 8.35522 15.5912C8.20573 15.5912 8.16023 15.5564 8.16023 15.459C8.16023 15.3824 8.19273 15.2989 8.22522 15.278C8.26422 15.2571 8.29022 15.1736 8.29022 15.097C8.29022 15.0274 8.32272 14.9648 8.35522 14.9648C8.39421 14.9648 8.42021 14.9021 8.42021 14.8256C8.42021 14.749 8.45271 14.6863 8.48521 14.6863C8.52421 14.6863 8.5502 14.5959 8.5502 14.4845C8.5502 14.3731 8.5697 14.2687 8.6022 14.2548C8.6282 14.2409 8.75169 14.0112 8.87518 13.7466C8.99868 13.4752 9.13517 13.2176 9.18067 13.1689C9.22616 13.1202 9.26516 13.0297 9.26516 12.974C9.26516 12.9183 9.29766 12.8765 9.33016 12.8765C9.36915 12.8765 9.39515 12.8139 9.39515 12.7373C9.39515 12.6608 9.42765 12.5981 9.46015 12.5981C9.49915 12.5981 9.52514 12.5424 9.52514 12.4728C9.52514 12.4032 9.58364 12.3058 9.65514 12.2501C9.72663 12.1944 9.78513 12.0969 9.78513 12.0273C9.78513 11.9577 9.81763 11.902 9.85012 11.902C9.88912 11.902 9.91512 11.8394 9.91512 11.7628C9.91512 11.6863 9.94762 11.6236 9.98012 11.6236C10.0191 11.6236 10.0451 11.5958 10.0451 11.554C10.0451 11.4914 10.2986 11.0528 10.4351 10.8788C10.4676 10.8301 10.5001 10.7466 10.5001 10.6839C10.5001 10.6282 10.5326 10.5795 10.5651 10.5795C10.6041 10.5795 10.6301 10.5308 10.6301 10.4751C10.6301 10.4194 10.6561 10.3707 10.6886 10.3707C10.7211 10.3707 10.7796 10.2732 10.8251 10.1619C10.8706 10.0435 10.9291 9.95303 10.9616 9.95303C10.9941 9.95303 11.0201 9.89039 11.0201 9.81382C11.0201 9.73725 11.0461 9.6746 11.072 9.6746C11.1045 9.6746 11.1825 9.56323 11.254 9.43098C11.319 9.29872 11.397 9.18735 11.423 9.18735C11.4555 9.18735 11.475 9.13862 11.475 9.08294C11.475 9.02725 11.5075 8.97853 11.54 8.97853C11.579 8.97853 11.605 8.9298 11.605 8.87412C11.605 8.81843 11.6375 8.76971 11.67 8.76971C11.709 8.76971 11.735 8.7349 11.735 8.69314C11.735 8.65137 11.826 8.48431 11.93 8.31726C12.0405 8.1502 12.125 7.99706 12.125 7.96922C12.125 7.94834 12.19 7.85089 12.2745 7.7604C12.515 7.48197 12.58 7.38452 12.58 7.30795C12.58 7.27314 12.6125 7.23834 12.645 7.23834C12.684 7.23834 12.7099 7.18961 12.7099 7.13393C12.7099 7.07824 12.7424 7.02952 12.7749 7.02952C12.8139 7.02952 12.8399 6.99471 12.8399 6.95991C12.8399 6.91814 12.9114 6.80677 13.0024 6.70932C13.0934 6.61187 13.1649 6.51442 13.1649 6.48658C13.1649 6.45874 13.2819 6.3056 13.4249 6.13854C13.5679 5.97844 13.6849 5.81835 13.6849 5.77658C13.6849 5.71393 14.3154 4.96217 14.5558 4.73943C14.6208 4.67678 14.8353 4.461 15.0303 4.25914C15.2318 4.06424 15.4138 3.89718 15.4463 3.89718C15.4723 3.89718 15.5373 3.85541 15.5828 3.80669C15.6478 3.73708 15.9338 3.59787 16.0832 3.5561C16.1027 3.54914 16.1677 3.59787 16.2327 3.66747Z" fill="white"/>
</svg>
