<svg width="38" height="38" viewBox="0 0 38 38" fill="none" xmlns="http://www.w3.org/2000/svg">
<g clip-path="url(#clip0_14_113)">
<path fill-rule="evenodd" clip-rule="evenodd" d="M14.087 27.205V15.596H10.228V27.206H14.087M12.157 14.011C13.503 14.011 14.34 13.12 14.34 12.006C14.315 10.866 13.503 10 12.183 10C10.863 10 10 10.867 10 12.006C10 13.12 10.837 14.01 12.132 14.01H12.157M16.222 27.205H20.08V20.722C20.08 20.375 20.105 20.029 20.207 19.781C20.487 19.087 21.121 18.369 22.187 18.369C23.583 18.369 24.142 19.434 24.142 20.995V27.205H28V20.55C28 16.984 26.096 15.325 23.558 15.325C21.476 15.325 20.562 16.488 20.055 17.281H20.08V15.596H16.222C16.272 16.686 16.222 27.206 16.222 27.206" fill="#0077B5"/>
</g>
<defs>
<clipPath id="clip0_14_113">
<rect width="18" height="18" fill="white" transform="translate(10 10)"/>
</clipPath>
</defs>
</svg>
