<svg width="26" height="18" viewBox="0 0 26 18" fill="none" xmlns="http://www.w3.org/2000/svg">
<g clip-path="url(#clip0_14_124)">
<path fill-rule="evenodd" clip-rule="evenodd" d="M17.64 9.204C17.64 8.566 17.583 7.953 17.476 7.364H9V10.844H13.844C13.6419 11.9571 12.9929 12.9389 12.048 13.561V15.819H14.956C16.658 14.253 17.64 11.945 17.64 9.204" fill="#4285F4"/>
<path fill-rule="evenodd" clip-rule="evenodd" d="M9 18C11.43 18 13.467 17.194 14.956 15.82L12.047 13.561C11.242 14.101 10.211 14.421 9 14.421C6.656 14.421 4.672 12.837 3.964 10.71H0.957V13.042C2.48465 16.0827 5.59712 18.0013 9 18" fill="#34A853"/>
<path fill-rule="evenodd" clip-rule="evenodd" d="M3.964 10.71C3.784 10.17 3.682 9.593 3.682 9C3.682 8.407 3.784 7.83 3.964 7.29V4.958H0.957C-0.320495 7.50126 -0.320495 10.4987 0.957 13.042L3.964 10.71" fill="#FBBC05"/>
<path fill-rule="evenodd" clip-rule="evenodd" d="M9 3.58C10.321 3.58 11.508 4.034 12.44 4.925L15.022 2.345C13.462 0.891 11.426 0 9 0C5.59718 -0.00111552 2.48483 1.91745 0.957 4.958L3.964 7.29C4.672 5.163 6.656 3.58 9 3.58" fill="#EA4335"/>
</g>
<defs>
<clipPath id="clip0_14_124">
<rect width="26" height="18" fill="white"/>
</clipPath>
</defs>
</svg>
